<svg xmlns="http://www.w3.org/2000/svg" viewBox="0 0 1280 640" fill="none">
  <defs>
    <linearGradient id="p-title" x1="0" y1="0" x2="1" y2="0">
      <stop offset="0%"   stop-color="#f0cc6e"/>
      <stop offset="50%"  stop-color="#c9a84c"/>
      <stop offset="100%" stop-color="#8b6914"/>
    </linearGradient>
    <linearGradient id="p-mmr" x1="0" y1="1" x2="0" y2="0">
      <stop stop-color="rgba(155,89,182,.15)"/>
      <stop offset="1" stop-color="rgba(155,89,182,.0)"/>
    </linearGradient>
    <linearGradient id="p-win-bar" x1="0" y1="0" x2="1" y2="0">
      <stop stop-color="#4ecca3"/>
      <stop offset="1" stop-color="rgba(78,204,163,.3)"/>
    </linearGradient>
    <linearGradient id="p-loss-bar" x1="0" y1="0" x2="1" y2="0">
      <stop stop-color="#e85d7a"/>
      <stop offset="1" stop-color="rgba(232,93,122,.3)"/>
    </linearGradient>
    <linearGradient id="p-bar1" x1="0" y1="0" x2="1" y2="0">
      <stop stop-color="#9b59b6"/>
      <stop offset="1" stop-color="rgba(155,89,182,.35)"/>
    </linearGradient>
    <linearGradient id="p-bar2" x1="0" y1="0" x2="1" y2="0">
      <stop stop-color="#3498db"/>
      <stop offset="1" stop-color="rgba(52,152,219,.35)"/>
    </linearGradient>
    <linearGradient id="p-bar3" x1="0" y1="0" x2="1" y2="0">
      <stop stop-color="#c9a84c"/>
      <stop offset="1" stop-color="rgba(201,168,76,.35)"/>
    </linearGradient>
  </defs>

  <!-- ── Fond global ── -->
  <rect width="1280" height="640" fill="#0a0b14"/>

  <!-- ── Fond étoilé subtil ── -->
  <circle cx="160"  cy="80"  r="1"   fill="rgba(201,168,76,.4)"/>
  <circle cx="480"  cy="40"  r="1.5" fill="rgba(155,89,182,.35)"/>
  <circle cx="820"  cy="70"  r="1"   fill="rgba(52,152,219,.3)"/>
  <circle cx="1100" cy="50"  r="1.5" fill="rgba(201,168,76,.3)"/>
  <circle cx="300"  cy="580" r="1"   fill="rgba(201,168,76,.35)"/>
  <circle cx="960"  cy="600" r="1.5" fill="rgba(155,89,182,.3)"/>

  <!-- ════════════════ EN-TÊTE ════════════════ -->
  <rect x="0" y="0" width="1280" height="90" fill="rgba(20,22,40,.7)"/>

  <!-- Logo icon (mini) -->
  <rect x="40" y="20" width="50" height="50" rx="10" fill="#141628" stroke="rgba(201,168,76,.5)" stroke-width="1.5"/>
  <path d="M65 27 C65 27 78 40 78 50 C78 57.5 72.5 63 65 63 C57.5 63 52 57.5 52 50 C52 40 65 27 65 27 Z"
        fill="rgba(155,89,182,.7)" stroke="rgba(176,124,198,.4)" stroke-width="1"/>
  <path d="M65 37 L66.6 42.5 L72 44 L66.6 45.5 L65 51 L63.4 45.5 L58 44 L63.4 42.5 Z" fill="#c9a84c"/>

  <!-- Titre -->
  <text x="106" y="52" font-family="Georgia, serif" font-size="22" font-weight="700"
        fill="#f0cc6e" letter-spacing="3" opacity=".95">INKWELL STATS</text>
  <text x="106" y="70" font-family="Georgia, serif" font-size="11" fill="#7a7fa0" letter-spacing="4">
    LORCANA · DUELS.INK
  </text>

  <!-- Séparateur header -->
  <line x1="0" y1="90" x2="1280" y2="90" stroke="#2a2f55" stroke-width="1"/>

  <!-- ════════════════ BARRE DE FILTRES ════════════════ -->
  <rect x="40" y="106" width="1200" height="42" rx="10" fill="#141628" stroke="#2a2f55" stroke-width="1"/>

  <!-- Label Deck -->
  <text x="64" y="131" font-family="Georgia, serif" font-size="10" fill="#c9a84c" letter-spacing="2">DECK</text>
  <!-- Select deck -->
  <rect x="104" y="116" width="160" height="22" rx="6" fill="#1c1f38" stroke="#2a2f55" stroke-width="1"/>
  <text x="114" y="131" font-family="Georgia, serif" font-size="11" fill="#d4c9f0">Tous les decks</text>
  <text x="252" y="131" font-family="Georgia, serif" font-size="11" fill="#7a7fa0">▾</text>

  <!-- Séparateur -->
  <line x1="278" y1="116" x2="278" y2="138" stroke="#2a2f55" stroke-width="1"/>

  <!-- Label File -->
  <text x="294" y="131" font-family="Georgia, serif" font-size="10" fill="#c9a84c" letter-spacing="2">FILE</text>
  <!-- Pills queue -->
  <rect x="330" y="118" width="64" height="18" rx="9" fill="rgba(201,168,76,.2)" stroke="#c9a84c" stroke-width="1"/>
  <text x="362" y="131" font-family="Georgia, serif" font-size="10" fill="#f0cc6e" text-anchor="middle">Ranked</text>
  <rect x="402" y="118" width="58" height="18" rx="9" fill="#1c1f38" stroke="#2a2f55" stroke-width="1"/>
  <text x="431" y="131" font-family="Georgia, serif" font-size="10" fill="#7a7fa0" text-anchor="middle">Casual</text>

  <!-- Séparateur -->
  <line x1="474" y1="116" x2="474" y2="138" stroke="#2a2f55" stroke-width="1"/>

  <!-- Label Période -->
  <text x="490" y="131" font-family="Georgia, serif" font-size="10" fill="#c9a84c" letter-spacing="2">PÉRIODE</text>
  <rect x="548" y="116" width="104" height="22" rx="6" fill="#1c1f38" stroke="#2a2f55" stroke-width="1"/>
  <text x="558" y="131" font-family="Georgia, serif" font-size="11" fill="#d4c9f0">2026-02-26</text>
  <text x="660" y="131" font-family="Georgia, serif" font-size="12" fill="#7a7fa0">→</text>
  <rect x="676" y="116" width="104" height="22" rx="6" fill="#1c1f38" stroke="#2a2f55" stroke-width="1"/>
  <text x="686" y="131" font-family="Georgia, serif" font-size="11" fill="#d4c9f0">2026-03-12</text>

  <!-- Compteur -->
  <text x="1200" y="131" font-family="Georgia, serif" font-size="11" fill="#7a7fa0" text-anchor="end">
    <tspan fill="#f0cc6e" font-weight="700">247</tspan> parties
  </text>

  <!-- ════════════════ KPIS ════════════════ -->
  <!-- 6 cartes KPI -->

  <!-- KPI 1 – Parties -->
  <rect x="40"  y="164" width="190" height="84" rx="12" fill="#141628" stroke="#2a2f55" stroke-width="1"/>
  <rect x="40"  y="164" width="190" height="2"  rx="1"  fill="#c9a84c"/>
  <text x="135" y="212" font-family="Georgia, serif" font-size="30" font-weight="700"
        fill="#f0cc6e" text-anchor="middle">247</text>
  <text x="135" y="232" font-family="Georgia, serif" font-size="10" fill="#7a7fa0"
        text-anchor="middle" letter-spacing="2">PARTIES</text>

  <!-- KPI 2 – Win rate -->
  <rect x="246" y="164" width="190" height="84" rx="12" fill="#141628" stroke="#2a2f55" stroke-width="1"/>
  <rect x="246" y="164" width="190" height="2" rx="1" fill="#4ecca3"/>
  <text x="341" y="212" font-family="Georgia, serif" font-size="30" font-weight="700"
        fill="#4ecca3" text-anchor="middle">67.2%</text>
  <text x="341" y="232" font-family="Georgia, serif" font-size="10" fill="#7a7fa0"
        text-anchor="middle" letter-spacing="2">WIN RATE</text>

  <!-- KPI 3 – MMR -->
  <rect x="452" y="164" width="190" height="84" rx="12" fill="#141628" stroke="#2a2f55" stroke-width="1"/>
  <rect x="452" y="164" width="190" height="2" rx="1" fill="#c9a84c"/>
  <text x="547" y="212" font-family="Georgia, serif" font-size="30" font-weight="700"
        fill="#f0cc6e" text-anchor="middle">1 840</text>
  <text x="547" y="232" font-family="Georgia, serif" font-size="10" fill="#7a7fa0"
        text-anchor="middle" letter-spacing="2">MMR ACTUEL</text>

  <!-- KPI 4 – Δ MMR -->
  <rect x="658" y="164" width="190" height="84" rx="12" fill="#141628" stroke="#2a2f55" stroke-width="1"/>
  <rect x="658" y="164" width="190" height="2" rx="1" fill="#4ecca3"/>
  <text x="753" y="212" font-family="Georgia, serif" font-size="30" font-weight="700"
        fill="#4ecca3" text-anchor="middle">+42</text>
  <text x="753" y="232" font-family="Georgia, serif" font-size="10" fill="#7a7fa0"
        text-anchor="middle" letter-spacing="2">Δ MMR TOTAL</text>

  <!-- KPI 5 – Durée -->
  <rect x="864" y="164" width="190" height="84" rx="12" fill="#141628" stroke="#2a2f55" stroke-width="1"/>
  <rect x="864" y="164" width="190" height="2" rx="1" fill="#9b59b6"/>
  <text x="959" y="212" font-family="Georgia, serif" font-size="30" font-weight="700"
        fill="#d4c9f0" text-anchor="middle">12 min</text>
  <text x="959" y="232" font-family="Georgia, serif" font-size="10" fill="#7a7fa0"
        text-anchor="middle" letter-spacing="2">DURÉE MOY.</text>

  <!-- KPI 6 – Série -->
  <rect x="1070" y="164" width="170" height="84" rx="12" fill="#141628" stroke="#2a2f55" stroke-width="1"/>
  <rect x="1070" y="164" width="170" height="2" rx="1" fill="#4ecca3"/>
  <text x="1155" y="205" font-family="Georgia, serif" font-size="26" font-weight="700"
        fill="#4ecca3" text-anchor="middle">5V</text>
  <text x="1155" y="225" font-family="Georgia, serif" font-size="9" fill="#7a7fa0"
        text-anchor="middle" letter-spacing="2">SÉRIE EN COURS</text>
  <!-- Dots série -->
  <g transform="translate(1105,234)">
    <rect x="0"  y="0" width="14" height="14" rx="3" fill="rgba(78,204,163,.2)"  stroke="rgba(78,204,163,.3)"  stroke-width="1"/>
    <rect x="18" y="0" width="14" height="14" rx="3" fill="rgba(78,204,163,.2)"  stroke="rgba(78,204,163,.3)"  stroke-width="1"/>
    <rect x="36" y="0" width="14" height="14" rx="3" fill="rgba(78,204,163,.2)"  stroke="rgba(78,204,163,.3)"  stroke-width="1"/>
    <rect x="54" y="0" width="14" height="14" rx="3" fill="rgba(78,204,163,.2)"  stroke="rgba(78,204,163,.3)"  stroke-width="1"/>
    <rect x="72" y="0" width="14" height="14" rx="3" fill="rgba(78,204,163,.2)"  stroke="rgba(78,204,163,.3)"  stroke-width="1"/>
  </g>

  <!-- ════════════════ GRAPHIQUES PRINCIPAUX ════════════════ -->

  <!-- ─── Évolution MMR ─── -->
  <rect x="40" y="268" width="620" height="180" rx="12" fill="#141628" stroke="#2a2f55" stroke-width="1"/>
  <text x="66" y="293" font-family="Georgia, serif" font-size="11" fill="#c9a84c" letter-spacing="2">ÉVOLUTION MMR</text>
  <!-- Grille horizontale -->
  <line x1="60" y1="316" x2="640" y2="316" stroke="#2a2f55" stroke-width=".5" stroke-dasharray="4,4"/>
  <line x1="60" y1="336" x2="640" y2="336" stroke="#2a2f55" stroke-width=".5" stroke-dasharray="4,4"/>
  <line x1="60" y1="356" x2="640" y2="356" stroke="#2a2f55" stroke-width=".5" stroke-dasharray="4,4"/>
  <line x1="60" y1="376" x2="640" y2="376" stroke="#2a2f55" stroke-width=".5" stroke-dasharray="4,4"/>
  <line x1="60" y1="396" x2="640" y2="396" stroke="#2a2f55" stroke-width=".5" stroke-dasharray="4,4"/>
  <!-- Labels axe Y -->
  <text x="58" y="319" font-family="Georgia, serif" font-size="9" fill="#7a7fa0" text-anchor="end">1900</text>
  <text x="58" y="359" font-family="Georgia, serif" font-size="9" fill="#7a7fa0" text-anchor="end">1850</text>
  <text x="58" y="399" font-family="Georgia, serif" font-size="9" fill="#7a7fa0" text-anchor="end">1800</text>
  <!-- Aire sous la courbe -->
  <path d="M66 390 L116 375 L166 382 L216 360 L266 345 L316 328 L366 340 L416 322 L466 330 L516 315 L566 308 L616 318 L636 315 L636 410 L66 410 Z"
        fill="url(#p-mmr)"/>
  <!-- Courbe MMR -->
  <polyline
    points="66,390 116,375 166,382 216,360 266,345 316,328 366,340 416,322 466,330 516,315 566,308 616,318 636,315"
    stroke="#9b59b6" stroke-width="2" stroke-linejoin="round" fill="none"/>
  <!-- Points victoires (cercles) -->
  <circle cx="116" cy="375" r="3" fill="#4ecca3"/>
  <circle cx="216" cy="360" r="3" fill="#4ecca3"/>
  <circle cx="316" cy="328" r="3" fill="#4ecca3"/>
  <circle cx="416" cy="322" r="3" fill="#4ecca3"/>
  <circle cx="516" cy="315" r="3" fill="#4ecca3"/>
  <circle cx="636" cy="315" r="3" fill="#4ecca3"/>
  <!-- Points défaites (triangles) -->
  <polygon points="166,379 170,387 162,387" fill="#e85d7a"/>
  <polygon points="366,337 370,345 362,345" fill="#e85d7a"/>
  <polygon points="466,327 470,335 462,335" fill="#e85d7a"/>
  <polygon points="566,305 570,313 562,313" fill="#e85d7a"/>

  <!-- ─── Donut V/D ─── -->
  <rect x="676" y="268" width="260" height="180" rx="12" fill="#141628" stroke="#2a2f55" stroke-width="1"/>
  <text x="700" y="293" font-family="Georgia, serif" font-size="11" fill="#c9a84c" letter-spacing="2">V / D</text>
  <!-- Donut simplifié (arcs SVG) -->
  <!-- Arc Victoires (67%) : 0 → 241.2° -->
  <path d="M 806 358 m -52 0 a 52 52 0 0 1 51.99 -0.91" stroke="#4ecca3" stroke-width="18" fill="none"
        stroke-dasharray="218 100" stroke-dashoffset="0" transform="rotate(-90, 806, 358)"/>
  <path d="M 806 358 m -52 0 a 52 52 0 1 1 -1 0" stroke="#4ecca3" stroke-width="18" fill="none"
        stroke-dasharray="218 108"/>
  <!-- Arc Défaites (33%) -->
  <path d="M 806 358 m -52 0 a 52 52 0 1 1 -1 0" stroke="#e85d7a" stroke-width="18" fill="none"
        stroke-dasharray="107 219" stroke-dashoffset="-218"/>
  <!-- Centre -->
  <circle cx="806" cy="358" r="33" fill="#0f1020"/>
  <text x="806" y="353" font-family="Georgia, serif" font-size="18" font-weight="700"
        fill="#f0cc6e" text-anchor="middle">67%</text>
  <text x="806" y="370" font-family="Georgia, serif" font-size="9" fill="#7a7fa0"
        text-anchor="middle" letter-spacing="1">WIN RATE</text>
  <!-- Légende -->
  <rect x="876" y="330" width="8" height="8" rx="2" fill="#4ecca3"/>
  <text x="890" y="339" font-family="Georgia, serif" font-size="11" fill="#7a7fa0">166 Victoires</text>
  <rect x="876" y="354" width="8" height="8" rx="2" fill="#e85d7a"/>
  <text x="890" y="363" font-family="Georgia, serif" font-size="11" fill="#7a7fa0">81 Défaites</text>

  <!-- ─── Winrate par Deck ─── -->
  <rect x="952" y="268" width="288" height="180" rx="12" fill="#141628" stroke="#2a2f55" stroke-width="1"/>
  <text x="976" y="293" font-family="Georgia, serif" font-size="11" fill="#c9a84c" letter-spacing="2">WINRATE PAR DECK</text>

  <!-- Barre 1 : Amethyst/Sapphire -->
  <text x="976" y="318" font-family="Georgia, serif" font-size="10" fill="#7a7fa0">Amethyst/Sapphire</text>
  <rect x="976" y="322" width="200" height="7" rx="3" fill="#1c1f38"/>
  <rect x="976" y="322" width="144" height="7" rx="3" fill="url(#p-bar1)"/>
  <text x="1228" y="331" font-family="Georgia, serif" font-size="10" fill="#9b59b6" text-anchor="end">72%</text>

  <!-- Barre 2 : Sapphire/Steel -->
  <text x="976" y="350" font-family="Georgia, serif" font-size="10" fill="#7a7fa0">Sapphire/Steel</text>
  <rect x="976" y="354" width="200" height="7" rx="3" fill="#1c1f38"/>
  <rect x="976" y="354" width="128" height="7" rx="3" fill="url(#p-bar2)"/>
  <text x="1228" y="363" font-family="Georgia, serif" font-size="10" fill="#3498db" text-anchor="end">64%</text>

  <!-- Barre 3 : Amber/Ruby -->
  <text x="976" y="382" font-family="Georgia, serif" font-size="10" fill="#7a7fa0">Amber/Ruby</text>
  <rect x="976" y="386" width="200" height="7" rx="3" fill="#1c1f38"/>
  <rect x="976" y="386" width="116" height="7" rx="3" fill="url(#p-bar3)"/>
  <text x="1228" y="395" font-family="Georgia, serif" font-size="10" fill="#c9a84c" text-anchor="end">58%</text>

  <!-- Barre 4 : Ruby/Steel -->
  <text x="976" y="414" font-family="Georgia, serif" font-size="10" fill="#7a7fa0">Ruby/Steel</text>
  <rect x="976" y="418" width="200" height="7" rx="3" fill="#1c1f38"/>
  <rect x="976" y="418" width="96" height="7" rx="3" fill="#e85d7a" fill-opacity=".8"/>
  <text x="1228" y="427" font-family="Georgia, serif" font-size="10" fill="#e85d7a" text-anchor="end">48%</text>

  <!-- ════════════════ LIGNE DU BAS : FILTRE ACTIF ════════════════ -->
  <rect x="40" y="462" width="440" height="152" rx="12" fill="#141628" stroke="#2a2f55" stroke-width="1"/>
  <text x="66" y="487" font-family="Georgia, serif" font-size="11" fill="#c9a84c" letter-spacing="2">ORDRE DE JEU</text>
  <!-- OTP bar -->
  <text x="66" y="514" font-family="Georgia, serif" font-size="10" fill="#7a7fa0">OTP (premier)</text>
  <rect x="66" y="518" width="300" height="10" rx="5" fill="#1c1f38"/>
  <rect x="66" y="518" width="213" height="10" rx="5" fill="#9b59b6" fill-opacity=".8"/>
  <text x="380" y="529" font-family="Georgia, serif" font-size="11" fill="#9b59b6">71%</text>
  <!-- OTD bar -->
  <text x="66" y="552" font-family="Georgia, serif" font-size="10" fill="#7a7fa0">OTD (second)</text>
  <rect x="66" y="556" width="300" height="10" rx="5" fill="#1c1f38"/>
  <rect x="66" y="556" width="189" height="10" rx="5" fill="#3498db" fill-opacity=".8"/>
  <text x="380" y="567" font-family="Georgia, serif" font-size="11" fill="#3498db">63%</text>
  <!-- Stats -->
  <text x="66" y="596" font-family="Georgia, serif" font-size="10" fill="#7a7fa0">128 parties en premier · 119 en second</text>

  <!-- Momentum -->
  <rect x="496" y="462" width="412" height="152" rx="12" fill="#141628" stroke="#2a2f55" stroke-width="1"/>
  <text x="522" y="487" font-family="Georgia, serif" font-size="11" fill="#c9a84c" letter-spacing="2">MOMENTUM</text>
  <!-- Rolling win rate line (simplified) -->
  <line x1="516" y1="556" x2="888" y2="556" stroke="#2a2f55" stroke-width=".5" stroke-dasharray="3,3"/>
  <line x1="516" y1="536" x2="888" y2="536" stroke="#2a2f55" stroke-width=".5" stroke-dasharray="3,3"/>
  <!-- 50% line -->
  <line x1="516" y1="545" x2="888" y2="545" stroke="rgba(201,168,76,.2)" stroke-width="1" stroke-dasharray="6,3"/>
  <!-- Courbe momentum -->
  <polyline points="522,570 566,558 610,540 654,548 698,530 742,522 786,534 830,516 874,522 888,518"
            stroke="#4ecca3" stroke-width="2" stroke-linejoin="round" fill="none"/>
  <!-- Aire sous la courbe momentum -->
  <path d="M522,570 566,558 610,540 654,548 698,530 742,522 786,534 830,516 874,522 888,518 888,600 522,600 Z"
        fill="rgba(78,204,163,.08)"/>
  <text x="522" y="600" font-family="Georgia, serif" font-size="9" fill="#7a7fa0">Win rate glissant sur 5 parties</text>

  <!-- Prédicteur matchup -->
  <rect x="924" y="462" width="316" height="152" rx="12" fill="#141628" stroke="#2a2f55" stroke-width="1"/>
  <text x="950" y="487" font-family="Georgia, serif" font-size="11" fill="#c9a84c" letter-spacing="2">MATCHUPS</text>
  <!-- Cards matchup -->
  <rect x="950" y="498" width="80" height="60" rx="8" fill="#1c1f38" stroke="#2a2f55" stroke-width="1"/>
  <text x="990" y="522" font-family="Georgia, serif" font-size="16" font-weight="700" fill="#4ecca3" text-anchor="middle">78%</text>
  <text x="990" y="538" font-family="Georgia, serif" font-size="8"  fill="#7a7fa0" text-anchor="middle">vs Amb/Ruby</text>
  <text x="990" y="550" font-family="Georgia, serif" font-size="9"  fill="#4ecca3" text-anchor="middle">FAVORABLE</text>

  <rect x="1042" y="498" width="80" height="60" rx="8" fill="#1c1f38" stroke="#2a2f55" stroke-width="1"/>
  <text x="1082" y="522" font-family="Georgia, serif" font-size="16" font-weight="700" fill="#e85d7a" text-anchor="middle">42%</text>
  <text x="1082" y="538" font-family="Georgia, serif" font-size="8"  fill="#7a7fa0" text-anchor="middle">vs Steel/Steel</text>
  <text x="1082" y="550" font-family="Georgia, serif" font-size="9"  fill="#e85d7a" text-anchor="middle">DÉFAVORABLE</text>

  <rect x="1134" y="498" width="80" height="60" rx="8" fill="#1c1f38" stroke="#2a2f55" stroke-width="1"/>
  <text x="1174" y="522" font-family="Georgia, serif" font-size="16" font-weight="700" fill="#f0cc6e" text-anchor="middle">61%</text>
  <text x="1174" y="538" font-family="Georgia, serif" font-size="8"  fill="#7a7fa0" text-anchor="middle">vs Sap/Eme</text>
  <text x="1174" y="550" font-family="Georgia, serif" font-size="9"  fill="#f0cc6e" text-anchor="middle">ÉQUILIBRÉ</text>

  <!-- ── Bordure finale du preview ── -->
  <rect x="0" y="0" width="1280" height="640" rx="0" fill="none" stroke="rgba(201,168,76,.15)" stroke-width="2"/>
</svg>
